<svg xmlns="http://www.w3.org/2000/svg" xmlns:xlink="http://www.w3.org/1999/xlink" width="16" height="17" version="1.1" viewBox="0 0 16 17"><title>iconmonstr-twitch-2</title><g id="Page-1" fill="none" fill-rule="evenodd" stroke="none" stroke-width="1"><g id="iconmonstr-twitch-2" fill="#FFF" fill-rule="nonzero"><path id="Shape" d="M16,10.2509799 L11.625229,14.6263087 L8.37581785,14.6263087 L6.24967286,16.7516779 L4,16.7516779 L4,14.6263087 L-8.8817842e-16,14.6263087 L-8.8817842e-16,2.87500671 L1.12535985,0 L16,0 L16,10.2509799 Z M5.87490186,14.1258523 L8,12.0004832 L12,12.0004832 L14.4998691,9.5002953 L14.4998691,1.50032215 L2.49986914,1.50032215 L2.49986914,12.0015302 L5.87490186,12.0015302 L5.87490186,14.1258523 Z M10.4998691,4.37532886 L12,4.37532886 L12,8.7464698 L10.4998691,8.7464698 L10.4998691,4.37532886 L10.4998691,4.37532886 Z M6.49986914,4.37532886 L8,4.37532886 L8,8.7464698 L6.49986914,8.7464698 L6.49986914,4.37532886 L6.49986914,4.37532886 Z"/></g></g></svg>